M48
;DRILL file {KiCad 4.0.6} date 07/31/17 14:17:28
;FORMAT={-:-/ absolute / inch / decimal}
FMAT,2
INCH,TZ
T1C0.031
T2C0.035
T3C0.039
T4C0.045
T5C0.122
T6C0.094
%
G90
G05
M72
T1
X4.1339Y-3.6614
X4.1339Y-3.9961
X4.2079Y-4.0701
X4.2079Y-4.1701
X4.2079Y-4.2701
X4.2079Y-4.3701
X4.311Y-4.626
X4.3307Y-3.7598
X4.3307Y-4.1732
X4.5079Y-4.0701
X4.5079Y-4.1701
X4.5079Y-4.2701
X4.5079Y-4.3701
X4.5669Y-4.626
X4.626Y-4.0551
X4.626Y-4.3307
X4.9067Y-3.6417
X5.2047Y-3.7244
X5.2047Y-4.4803
X5.2067Y-3.6417
X5.5906Y-3.476
X5.5906Y-3.576
X5.5906Y-3.676
X5.5906Y-3.776
X5.5906Y-3.876
X5.5906Y-3.976
X5.5906Y-4.086
X5.5906Y-4.186
X5.5906Y-4.286
X5.5906Y-4.386
X5.5906Y-4.486
X5.5906Y-4.586
X5.8906Y-3.476
X5.8906Y-3.576
X5.8906Y-3.676
X5.8906Y-3.776
X5.8906Y-3.876
X5.8906Y-3.976
X5.8906Y-4.086
X5.8906Y-4.186
X5.8906Y-4.286
X5.8906Y-4.386
X5.8906Y-4.486
X5.8906Y-4.586
X6.1319Y-3.7795
X6.1319Y-4.3701
X6.1417Y-4.9606
X6.2205Y-3.9764
X6.2205Y-4.498
X6.2303Y-3.376
X6.2402Y-3.5827
X6.2402Y-4.1732
X6.2402Y-4.7638
X6.3386Y-3.5827
X6.3386Y-4.1732
X6.3386Y-4.7638
X6.4319Y-3.7795
X6.4319Y-4.3701
X6.437Y-3.5827
X6.437Y-4.1732
X6.437Y-4.7638
X6.4417Y-4.9606
X6.5059Y-3.376
X6.5748Y-3.9764
X6.5748Y-4.498
X6.6988Y-5.0541
X6.6988Y-5.0837
X6.6988Y-5.1132
X6.6988Y-5.1427
X6.6988Y-5.1722
X6.6988Y-5.2018
X6.7283Y-5.0541
X6.7283Y-5.0837
X6.7283Y-5.1132
X6.7283Y-5.1427
X6.7283Y-5.1722
X6.7283Y-5.2018
X6.8307Y-3.4843
X6.8307Y-4.0748
X6.8307Y-4.6654
X6.8789Y-5.1014
X6.8789Y-5.1309
X6.9085Y-5.1014
X6.9085Y-5.1309
X6.9291Y-3.2874
X6.9291Y-3.878
X6.9291Y-4.4685
X6.938Y-5.1014
X6.938Y-5.1309
X6.9675Y-5.1014
X6.9675Y-5.1309
X6.997Y-5.1014
X6.997Y-5.1309
X7.0266Y-5.1014
X7.0266Y-5.1309
X7.0276Y-3.2874
X7.0276Y-3.878
X7.0276Y-4.4685
X7.126Y-3.2874
X7.126Y-3.878
X7.126Y-4.4685
X7.1307Y-3.4843
X7.1307Y-4.0748
X7.1307Y-4.6654
T2
X3.8583Y-3.7205
X3.8583Y-3.7992
X3.8583Y-3.878
X3.8583Y-3.9567
X3.8583Y-4.4291
X3.8583Y-4.5079
X3.8583Y-4.5866
X3.8583Y-4.6654
X3.9583Y-3.5384
X3.9583Y-3.7598
X3.9583Y-3.8386
X3.9583Y-3.9173
X3.9583Y-3.9961
X3.9583Y-4.1781
X3.9583Y-4.247
X3.9583Y-4.4685
X3.9583Y-4.5472
X3.9583Y-4.626
X3.9583Y-4.7047
X3.9583Y-4.8868
X4.3209Y-3.2776
X4.3209Y-3.3776
X4.5768Y-3.2776
X4.5768Y-3.3776
X5.2953Y-4.8819
X5.2953Y-4.9819
T3
X3.7992Y-5.0591
X3.8992Y-5.0591
X3.9992Y-5.0591
X4.0992Y-5.0591
X4.1992Y-5.0591
X4.2992Y-5.0591
T4
X4.9098Y-3.2358
X4.9098Y-3.5358
X5.0098Y-3.5358
X5.1098Y-3.2358
X5.1098Y-3.5358
T5
X3.622Y-3.2579
X3.622Y-5.1673
T6
X3.7677Y-3.5669
X3.7677Y-4.1496
X3.7677Y-4.2756
X3.7677Y-4.8583
T0
M30
