G04 #@! TF.FileFunction,Copper,L2,Bot,Signal*
%FSLAX46Y46*%
G04 Gerber Fmt 4.6, Leading zero omitted, Abs format (unit mm)*
G04 Created by KiCad (PCBNEW 4.0.6) date 07/31/17 14:14:19*
%MOMM*%
%LPD*%
G01*
G04 APERTURE LIST*
%ADD10C,0.100000*%
%ADD11R,2.000000X2.000000*%
%ADD12C,2.000000*%
%ADD13C,1.600000*%
%ADD14O,1.600000X1.600000*%
%ADD15C,0.900000*%
%ADD16R,1.600000X1.600000*%
%ADD17R,2.500000X2.000000*%
%ADD18R,1.800000X1.800000*%
%ADD19C,1.800000*%
%ADD20R,2.400000X1.600000*%
%ADD21O,2.400000X1.600000*%
%ADD22R,1.700000X1.700000*%
%ADD23O,1.700000X1.700000*%
%ADD24C,1.778000*%
%ADD25R,0.680000X2.123950*%
%ADD26R,5.699760X3.749550*%
%ADD27R,1.524000X1.524000*%
%ADD28R,1.200000X0.750000*%
%ADD29R,0.900000X1.500000*%
%ADD30R,1.500000X0.900000*%
%ADD31C,3.110000*%
%ADD32C,1.000000*%
%ADD33C,1.500000*%
%ADD34C,0.500000*%
%ADD35C,0.400000*%
G04 APERTURE END LIST*
D10*
D11*
X158500000Y-121000000D03*
D12*
X161000000Y-121000000D03*
X163500000Y-121000000D03*
D13*
X156000000Y-126000000D03*
D14*
X163620000Y-126000000D03*
D15*
X100540000Y-107875000D03*
X100540000Y-124125000D03*
D13*
X100540000Y-113500000D03*
X100540000Y-115500000D03*
X100540000Y-117500000D03*
D16*
X100540000Y-119500000D03*
D13*
X98000000Y-112500000D03*
X98000000Y-114500000D03*
X98000000Y-116500000D03*
X98000000Y-118500000D03*
D15*
X100540000Y-89875000D03*
X100540000Y-106125000D03*
D13*
X100540000Y-95500000D03*
X100540000Y-97500000D03*
X100540000Y-99500000D03*
D16*
X100540000Y-101500000D03*
D13*
X98000000Y-94500000D03*
X98000000Y-96500000D03*
X98000000Y-98500000D03*
X98000000Y-100500000D03*
D11*
X176000000Y-98500000D03*
D12*
X178500000Y-98500000D03*
X181000000Y-98500000D03*
D17*
X130250000Y-117000000D03*
X130250000Y-113000000D03*
D18*
X116250000Y-83250000D03*
D19*
X116250000Y-85790000D03*
D18*
X109750000Y-83250000D03*
D19*
X109750000Y-85790000D03*
D18*
X134500000Y-124000000D03*
D19*
X134500000Y-126540000D03*
D20*
X142002000Y-88290000D03*
D21*
X149622000Y-90830000D03*
X142002000Y-90830000D03*
X149622000Y-88290000D03*
D20*
X142002000Y-93370000D03*
D21*
X149622000Y-95910000D03*
X142002000Y-95910000D03*
X149622000Y-93370000D03*
D20*
X142002000Y-98450000D03*
D21*
X149622000Y-100990000D03*
X142002000Y-100990000D03*
X149622000Y-98450000D03*
D20*
X142002000Y-103784000D03*
D21*
X149622000Y-106324000D03*
X142002000Y-106324000D03*
X149622000Y-103784000D03*
D20*
X142002000Y-108864000D03*
D21*
X149622000Y-111404000D03*
X142002000Y-111404000D03*
X149622000Y-108864000D03*
D20*
X142002000Y-113944000D03*
D21*
X149622000Y-116484000D03*
X142002000Y-116484000D03*
X149622000Y-113944000D03*
D22*
X96500000Y-128500000D03*
D23*
X99040000Y-128500000D03*
X101580000Y-128500000D03*
X104120000Y-128500000D03*
X106660000Y-128500000D03*
X109200000Y-128500000D03*
D24*
X129790000Y-82190000D03*
X124710000Y-82190000D03*
X124710000Y-89810000D03*
X127250000Y-89810000D03*
X129790000Y-89810000D03*
D10*
G36*
X128146536Y-96754757D02*
X128535445Y-97143666D01*
X127404074Y-98275037D01*
X127015165Y-97886128D01*
X128146536Y-96754757D01*
X128146536Y-96754757D01*
G37*
G36*
X128712221Y-97320443D02*
X129101130Y-97709352D01*
X127969759Y-98840723D01*
X127580850Y-98451814D01*
X128712221Y-97320443D01*
X128712221Y-97320443D01*
G37*
G36*
X129277907Y-97886128D02*
X129666816Y-98275037D01*
X128535445Y-99406408D01*
X128146536Y-99017499D01*
X129277907Y-97886128D01*
X129277907Y-97886128D01*
G37*
G36*
X129843592Y-98451813D02*
X130232501Y-98840722D01*
X129101130Y-99972093D01*
X128712221Y-99583184D01*
X129843592Y-98451813D01*
X129843592Y-98451813D01*
G37*
G36*
X130409278Y-99017499D02*
X130798187Y-99406408D01*
X129666816Y-100537779D01*
X129277907Y-100148870D01*
X130409278Y-99017499D01*
X130409278Y-99017499D01*
G37*
G36*
X130974963Y-99583184D02*
X131363872Y-99972093D01*
X130232501Y-101103464D01*
X129843592Y-100714555D01*
X130974963Y-99583184D01*
X130974963Y-99583184D01*
G37*
G36*
X131540648Y-100148870D02*
X131929557Y-100537779D01*
X130798186Y-101669150D01*
X130409277Y-101280241D01*
X131540648Y-100148870D01*
X131540648Y-100148870D01*
G37*
G36*
X132106334Y-100714555D02*
X132495243Y-101103464D01*
X131363872Y-102234835D01*
X130974963Y-101845926D01*
X132106334Y-100714555D01*
X132106334Y-100714555D01*
G37*
G36*
X132495243Y-103896536D02*
X132106334Y-104285445D01*
X130974963Y-103154074D01*
X131363872Y-102765165D01*
X132495243Y-103896536D01*
X132495243Y-103896536D01*
G37*
G36*
X131929557Y-104462221D02*
X131540648Y-104851130D01*
X130409277Y-103719759D01*
X130798186Y-103330850D01*
X131929557Y-104462221D01*
X131929557Y-104462221D01*
G37*
G36*
X131363872Y-105027907D02*
X130974963Y-105416816D01*
X129843592Y-104285445D01*
X130232501Y-103896536D01*
X131363872Y-105027907D01*
X131363872Y-105027907D01*
G37*
G36*
X130798187Y-105593592D02*
X130409278Y-105982501D01*
X129277907Y-104851130D01*
X129666816Y-104462221D01*
X130798187Y-105593592D01*
X130798187Y-105593592D01*
G37*
G36*
X130232501Y-106159278D02*
X129843592Y-106548187D01*
X128712221Y-105416816D01*
X129101130Y-105027907D01*
X130232501Y-106159278D01*
X130232501Y-106159278D01*
G37*
G36*
X129666816Y-106724963D02*
X129277907Y-107113872D01*
X128146536Y-105982501D01*
X128535445Y-105593592D01*
X129666816Y-106724963D01*
X129666816Y-106724963D01*
G37*
G36*
X129101130Y-107290648D02*
X128712221Y-107679557D01*
X127580850Y-106548186D01*
X127969759Y-106159277D01*
X129101130Y-107290648D01*
X129101130Y-107290648D01*
G37*
G36*
X128535445Y-107856334D02*
X128146536Y-108245243D01*
X127015165Y-107113872D01*
X127404074Y-106724963D01*
X128535445Y-107856334D01*
X128535445Y-107856334D01*
G37*
G36*
X126095926Y-106724963D02*
X126484835Y-107113872D01*
X125353464Y-108245243D01*
X124964555Y-107856334D01*
X126095926Y-106724963D01*
X126095926Y-106724963D01*
G37*
G36*
X125530241Y-106159277D02*
X125919150Y-106548186D01*
X124787779Y-107679557D01*
X124398870Y-107290648D01*
X125530241Y-106159277D01*
X125530241Y-106159277D01*
G37*
G36*
X124964555Y-105593592D02*
X125353464Y-105982501D01*
X124222093Y-107113872D01*
X123833184Y-106724963D01*
X124964555Y-105593592D01*
X124964555Y-105593592D01*
G37*
G36*
X124398870Y-105027907D02*
X124787779Y-105416816D01*
X123656408Y-106548187D01*
X123267499Y-106159278D01*
X124398870Y-105027907D01*
X124398870Y-105027907D01*
G37*
G36*
X123833184Y-104462221D02*
X124222093Y-104851130D01*
X123090722Y-105982501D01*
X122701813Y-105593592D01*
X123833184Y-104462221D01*
X123833184Y-104462221D01*
G37*
G36*
X123267499Y-103896536D02*
X123656408Y-104285445D01*
X122525037Y-105416816D01*
X122136128Y-105027907D01*
X123267499Y-103896536D01*
X123267499Y-103896536D01*
G37*
G36*
X122701814Y-103330850D02*
X123090723Y-103719759D01*
X121959352Y-104851130D01*
X121570443Y-104462221D01*
X122701814Y-103330850D01*
X122701814Y-103330850D01*
G37*
G36*
X122136128Y-102765165D02*
X122525037Y-103154074D01*
X121393666Y-104285445D01*
X121004757Y-103896536D01*
X122136128Y-102765165D01*
X122136128Y-102765165D01*
G37*
G36*
X122525037Y-101845926D02*
X122136128Y-102234835D01*
X121004757Y-101103464D01*
X121393666Y-100714555D01*
X122525037Y-101845926D01*
X122525037Y-101845926D01*
G37*
G36*
X123090723Y-101280241D02*
X122701814Y-101669150D01*
X121570443Y-100537779D01*
X121959352Y-100148870D01*
X123090723Y-101280241D01*
X123090723Y-101280241D01*
G37*
G36*
X123656408Y-100714555D02*
X123267499Y-101103464D01*
X122136128Y-99972093D01*
X122525037Y-99583184D01*
X123656408Y-100714555D01*
X123656408Y-100714555D01*
G37*
G36*
X124222093Y-100148870D02*
X123833184Y-100537779D01*
X122701813Y-99406408D01*
X123090722Y-99017499D01*
X124222093Y-100148870D01*
X124222093Y-100148870D01*
G37*
G36*
X124787779Y-99583184D02*
X124398870Y-99972093D01*
X123267499Y-98840722D01*
X123656408Y-98451813D01*
X124787779Y-99583184D01*
X124787779Y-99583184D01*
G37*
G36*
X125353464Y-99017499D02*
X124964555Y-99406408D01*
X123833184Y-98275037D01*
X124222093Y-97886128D01*
X125353464Y-99017499D01*
X125353464Y-99017499D01*
G37*
G36*
X125919150Y-98451814D02*
X125530241Y-98840723D01*
X124398870Y-97709352D01*
X124787779Y-97320443D01*
X125919150Y-98451814D01*
X125919150Y-98451814D01*
G37*
G36*
X126484835Y-97886128D02*
X126095926Y-98275037D01*
X124964555Y-97143666D01*
X125353464Y-96754757D01*
X126484835Y-97886128D01*
X126484835Y-97886128D01*
G37*
D25*
X129790520Y-120436500D03*
X127250520Y-120436500D03*
X128520520Y-120436500D03*
X125980520Y-120436500D03*
X124710520Y-120436500D03*
D26*
X127250000Y-129882000D03*
D11*
X176000000Y-83500000D03*
D12*
X178500000Y-83500000D03*
X181000000Y-83500000D03*
D11*
X158500000Y-91000000D03*
D12*
X161000000Y-91000000D03*
X163500000Y-91000000D03*
D11*
X158500000Y-106000000D03*
D12*
X161000000Y-106000000D03*
X163500000Y-106000000D03*
D11*
X176000000Y-113500000D03*
D12*
X178500000Y-113500000D03*
X181000000Y-113500000D03*
D13*
X173500000Y-88500000D03*
D14*
X181120000Y-88500000D03*
D13*
X155750000Y-96000000D03*
D14*
X163370000Y-96000000D03*
D13*
X173500000Y-103500000D03*
D14*
X181120000Y-103500000D03*
D13*
X155750000Y-111000000D03*
D14*
X163370000Y-111000000D03*
D13*
X173500000Y-118500000D03*
D14*
X181120000Y-118500000D03*
D13*
X132250000Y-92500000D03*
D14*
X124630000Y-92500000D03*
D20*
X114500000Y-111000000D03*
D21*
X106880000Y-103380000D03*
X114500000Y-108460000D03*
X106880000Y-105920000D03*
X114500000Y-105920000D03*
X106880000Y-108460000D03*
X114500000Y-103380000D03*
X106880000Y-111000000D03*
D27*
X170150000Y-128375000D03*
X170900000Y-128375000D03*
X170150000Y-129125000D03*
X170900000Y-129125000D03*
X170150000Y-129875000D03*
X170900000Y-129875000D03*
X170150000Y-130625000D03*
X170900000Y-130625000D03*
X170150000Y-131375000D03*
X170900000Y-131375000D03*
X170150000Y-132125000D03*
X170900000Y-132125000D03*
X174725000Y-129575000D03*
X175475000Y-129575000D03*
X176225000Y-129575000D03*
X176975000Y-129575000D03*
X177725000Y-129575000D03*
X178475000Y-129575000D03*
X174725000Y-130325000D03*
X175475000Y-130325000D03*
X176225000Y-130325000D03*
X176975000Y-130325000D03*
X177725000Y-130325000D03*
X178475000Y-130325000D03*
D28*
X127700000Y-94750000D03*
X125800000Y-94750000D03*
X125000000Y-117000000D03*
X126900000Y-117000000D03*
D29*
X116250000Y-90950000D03*
X116250000Y-89050000D03*
X109750000Y-90950000D03*
X109750000Y-89050000D03*
D30*
X134950000Y-120500000D03*
X133050000Y-120500000D03*
D10*
G36*
X128729721Y-96116117D02*
X129366117Y-95479721D01*
X130426777Y-96540381D01*
X129790381Y-97176777D01*
X128729721Y-96116117D01*
X128729721Y-96116117D01*
G37*
G36*
X130073223Y-97459619D02*
X130709619Y-96823223D01*
X131770279Y-97883883D01*
X131133883Y-98520279D01*
X130073223Y-97459619D01*
X130073223Y-97459619D01*
G37*
D30*
X109550000Y-111000000D03*
X111450000Y-111000000D03*
D29*
X133250000Y-84200000D03*
X133250000Y-82300000D03*
X131750000Y-84200000D03*
X131750000Y-82300000D03*
D30*
X127800000Y-92250000D03*
X129700000Y-92250000D03*
X139200000Y-88250000D03*
X137300000Y-88250000D03*
X139200000Y-93500000D03*
X137300000Y-93500000D03*
X139200000Y-98500000D03*
X137300000Y-98500000D03*
X139200000Y-103750000D03*
X137300000Y-103750000D03*
X138950000Y-109000000D03*
X137050000Y-109000000D03*
X139200000Y-114000000D03*
X137300000Y-114000000D03*
D31*
X92000000Y-131250000D03*
X92000000Y-82750000D03*
D13*
X158000000Y-101000000D03*
X167000000Y-101000000D03*
X165250000Y-85750000D03*
X158250000Y-85750000D03*
X158000000Y-114250000D03*
X167000000Y-114250000D03*
X132200000Y-113800000D03*
X132200000Y-94600000D03*
X116000000Y-117500000D03*
X109500000Y-117500000D03*
X110000000Y-95500000D03*
X110000000Y-106000000D03*
X105000000Y-93000000D03*
X105000000Y-101500000D03*
X117500000Y-103000000D03*
X117500000Y-110000000D03*
D32*
X157990000Y-100990000D02*
X158000000Y-101000000D01*
D33*
X178600000Y-129900000D02*
X176600000Y-129900000D01*
D32*
X163620000Y-121120000D02*
X163500000Y-121000000D01*
X181120000Y-103500000D02*
X181000000Y-103620000D01*
X163370000Y-96000000D02*
X163500000Y-96130000D01*
D34*
X132200000Y-94600000D02*
X131647183Y-94047183D01*
X130250000Y-113000000D02*
X132200000Y-113800000D01*
X132200000Y-94600000D02*
X131647183Y-94047183D01*
D32*
X127250520Y-120436500D02*
X127250520Y-117050520D01*
X127250520Y-117050520D02*
X127200000Y-117000000D01*
X127250520Y-120436500D02*
X127250520Y-129881480D01*
X127250520Y-129881480D02*
X127250000Y-129882000D01*
D34*
X125724695Y-107485103D02*
X125800000Y-107560408D01*
X125800000Y-107560408D02*
X125800000Y-107800000D01*
D32*
X125800000Y-107800000D02*
X127200000Y-109200000D01*
X127200000Y-109200000D02*
X127200000Y-114500000D01*
X127200000Y-117000000D02*
X127200000Y-114500000D01*
X127200000Y-114500000D02*
X127200000Y-114300000D01*
X127200000Y-114300000D02*
X128500000Y-113000000D01*
X128500000Y-113000000D02*
X130250000Y-113000000D01*
X134500000Y-126540000D02*
X134500000Y-128500000D01*
X133118000Y-129882000D02*
X127250000Y-129882000D01*
X134500000Y-128500000D02*
X133118000Y-129882000D01*
D34*
X127250520Y-120436500D02*
X127200000Y-120385980D01*
X127130840Y-99030840D02*
X128522103Y-100422103D01*
X128522103Y-100422103D02*
X129393583Y-100422103D01*
X129393583Y-100422103D02*
X129401652Y-100414034D01*
X129401652Y-100414034D02*
X130038047Y-99777639D01*
X127130840Y-98159362D02*
X127130840Y-99030840D01*
X127775305Y-97514897D02*
X127130840Y-98159362D01*
X127775305Y-97514897D02*
X129068019Y-96222183D01*
X131750000Y-84350000D02*
X133250000Y-84350000D01*
X129472183Y-96222183D02*
X130747183Y-94947183D01*
X130747183Y-94947183D02*
X131600000Y-94094366D01*
X131600000Y-94094366D02*
X132250000Y-93444366D01*
X132250000Y-93444366D02*
X132250000Y-92500000D01*
X132250000Y-92500000D02*
X132250000Y-84850000D01*
X132250000Y-84850000D02*
X131750000Y-84350000D01*
D35*
X128000000Y-94750000D02*
X127650000Y-94400000D01*
D34*
X127650000Y-94400000D02*
X127650000Y-92250000D01*
X128000000Y-94750000D02*
X129472183Y-96222183D01*
X129068019Y-96222183D02*
X129472183Y-96222183D01*
X127775305Y-97514897D02*
X127750000Y-97489592D01*
X101580000Y-128500000D02*
X106280000Y-133200000D01*
X106280000Y-133200000D02*
X107600000Y-133200000D01*
X127775305Y-107485103D02*
X134200000Y-113909798D01*
X134200000Y-113909798D02*
X134200000Y-116484000D01*
D32*
X98000000Y-96500000D02*
X93500000Y-96500000D01*
X93500000Y-96500000D02*
X90500000Y-99500000D01*
D34*
X111600000Y-111000000D02*
X111600000Y-109900000D01*
D32*
X111600000Y-112900000D02*
X111600000Y-130100000D01*
X111600000Y-130100000D02*
X114700000Y-133200000D01*
X97500000Y-133200000D02*
X90500000Y-126200000D01*
X90500000Y-126200000D02*
X90500000Y-99500000D01*
X90500000Y-99500000D02*
X90500000Y-89000000D01*
X96250000Y-83250000D02*
X109750000Y-83250000D01*
X90500000Y-89000000D02*
X96250000Y-83250000D01*
X97500000Y-133200000D02*
X97800000Y-133200000D01*
X114500000Y-108460000D02*
X113040000Y-108460000D01*
X109000000Y-115500000D02*
X100540000Y-115500000D01*
X111600000Y-112900000D02*
X109000000Y-115500000D01*
X111600000Y-109900000D02*
X111600000Y-112900000D01*
X113040000Y-108460000D02*
X111600000Y-109900000D01*
X98000000Y-114500000D02*
X98500000Y-114500000D01*
X98500000Y-114500000D02*
X99500000Y-115500000D01*
X99500000Y-115500000D02*
X100540000Y-115500000D01*
X98000000Y-96500000D02*
X98500000Y-96500000D01*
X98500000Y-96500000D02*
X99500000Y-97500000D01*
X99500000Y-97500000D02*
X100540000Y-97500000D01*
X144250000Y-120000000D02*
X144250000Y-130150000D01*
X144250000Y-130150000D02*
X141200000Y-133200000D01*
X141200000Y-133200000D02*
X114700000Y-133200000D01*
X144250000Y-117750000D02*
X144250000Y-120000000D01*
X114700000Y-133200000D02*
X107600000Y-133200000D01*
X107600000Y-133200000D02*
X98000000Y-133200000D01*
X98000000Y-133200000D02*
X97500000Y-133200000D01*
X142002000Y-116484000D02*
X134200000Y-116484000D01*
X134200000Y-116484000D02*
X134016000Y-116484000D01*
X132900000Y-117600000D02*
X132900000Y-120500000D01*
X134016000Y-116484000D02*
X132900000Y-117600000D01*
X132900000Y-120500000D02*
X129854020Y-120500000D01*
X129854020Y-120500000D02*
X129790520Y-120436500D01*
X129790520Y-120436500D02*
X129790520Y-117459480D01*
X129790520Y-117459480D02*
X130250000Y-117000000D01*
D34*
X126369160Y-100400000D02*
X126369160Y-101530840D01*
X126369160Y-98159362D02*
X126369160Y-100400000D01*
X126369160Y-100400000D02*
X126369160Y-106078958D01*
X126369160Y-106078958D02*
X127775305Y-107485103D01*
X125724695Y-97514897D02*
X126369160Y-98159362D01*
D32*
X109750000Y-83250000D02*
X116250000Y-83250000D01*
X144250000Y-97750000D02*
X144250000Y-92000000D01*
X144250000Y-92000000D02*
X143080000Y-90830000D01*
X143080000Y-90830000D02*
X142002000Y-90830000D01*
D34*
X125500000Y-94750000D02*
X125500000Y-93750000D01*
X126250000Y-90810000D02*
X127250000Y-89810000D01*
X126250000Y-93000000D02*
X126250000Y-90810000D01*
X125500000Y-93750000D02*
X126250000Y-93000000D01*
X125724695Y-97514897D02*
X125500000Y-97290202D01*
X125500000Y-97290202D02*
X125500000Y-94750000D01*
D32*
X142002000Y-116484000D02*
X142984000Y-116484000D01*
X142984000Y-116484000D02*
X144250000Y-117750000D01*
X142002000Y-111404000D02*
X142904000Y-111404000D01*
X142904000Y-111404000D02*
X144250000Y-112750000D01*
X142002000Y-106324000D02*
X143074000Y-106324000D01*
X143074000Y-106324000D02*
X144250000Y-107500000D01*
X142002000Y-100990000D02*
X142990000Y-100990000D01*
X142990000Y-100990000D02*
X144250000Y-102250000D01*
X142002000Y-95910000D02*
X143160000Y-95910000D01*
X143160000Y-95910000D02*
X144250000Y-97000000D01*
X144250000Y-97000000D02*
X144250000Y-97750000D01*
X144250000Y-97750000D02*
X144250000Y-102250000D01*
X144250000Y-102250000D02*
X144250000Y-107500000D01*
X144250000Y-107500000D02*
X144250000Y-112750000D01*
X144250000Y-112750000D02*
X144250000Y-117750000D01*
X100540000Y-117500000D02*
X109500000Y-117500000D01*
X116000000Y-117500000D02*
X124200000Y-117500000D01*
X124200000Y-117500000D02*
X124700000Y-117000000D01*
X117750000Y-106750000D02*
X124700000Y-113700000D01*
X124700000Y-113700000D02*
X124700000Y-117000000D01*
X114500000Y-105920000D02*
X116920000Y-105920000D01*
X116920000Y-105920000D02*
X117750000Y-106750000D01*
X114500000Y-105920000D02*
X115420000Y-105920000D01*
X124700000Y-116800000D02*
X124700000Y-117000000D01*
X114500000Y-105920000D02*
X112420000Y-105920000D01*
X111000000Y-104500000D02*
X111000000Y-103000000D01*
X112420000Y-105920000D02*
X111000000Y-104500000D01*
X100540000Y-99500000D02*
X109000000Y-99500000D01*
X109000000Y-99500000D02*
X111000000Y-101500000D01*
X111000000Y-101500000D02*
X111000000Y-103000000D01*
X113920000Y-105920000D02*
X114500000Y-105920000D01*
X98000000Y-116500000D02*
X98500000Y-116500000D01*
X98500000Y-116500000D02*
X99500000Y-117500000D01*
X99500000Y-117500000D02*
X100540000Y-117500000D01*
X98000000Y-98500000D02*
X98500000Y-98500000D01*
X98500000Y-98500000D02*
X99500000Y-99500000D01*
X99500000Y-99500000D02*
X100540000Y-99500000D01*
X125980520Y-120436500D02*
X124710520Y-120436500D01*
D34*
X124710520Y-120436500D02*
X124700000Y-120425980D01*
D32*
X124700000Y-120425980D02*
X124700000Y-117000000D01*
D35*
X116250000Y-85790000D02*
X116250000Y-88900000D01*
X109750000Y-85790000D02*
X109750000Y-88900000D01*
D32*
X135100000Y-120500000D02*
X135100000Y-123400000D01*
X135100000Y-123400000D02*
X134500000Y-124000000D01*
D34*
X132473528Y-98473528D02*
X133750000Y-97197056D01*
X133750000Y-90000000D02*
X135500000Y-88250000D01*
X133750000Y-97197056D02*
X133750000Y-90000000D01*
X130603732Y-100343324D02*
X132473528Y-98473528D01*
X135500000Y-88250000D02*
X137150000Y-88250000D01*
D32*
X176000000Y-83500000D02*
X176000000Y-84250000D01*
D34*
X131169417Y-100909010D02*
X134500000Y-97578427D01*
X136000000Y-93500000D02*
X137150000Y-93500000D01*
X134500000Y-95000000D02*
X136000000Y-93500000D01*
X134500000Y-97578427D02*
X134500000Y-95000000D01*
D32*
X149712000Y-96000000D02*
X149622000Y-95910000D01*
X149622000Y-95910000D02*
X149712000Y-96000000D01*
D34*
X131735103Y-101474695D02*
X134709798Y-98500000D01*
X134709798Y-98500000D02*
X137150000Y-98500000D01*
X130038047Y-105222361D02*
X131065686Y-106250000D01*
X137150000Y-105100000D02*
X137150000Y-103750000D01*
X136000000Y-106250000D02*
X137150000Y-105100000D01*
X131065686Y-106250000D02*
X136000000Y-106250000D01*
D32*
X158176000Y-106324000D02*
X158500000Y-106000000D01*
D34*
X129472361Y-105788047D02*
X132684314Y-109000000D01*
X132684314Y-109000000D02*
X136900000Y-109000000D01*
X128906676Y-106353732D02*
X136552944Y-114000000D01*
X136552944Y-114000000D02*
X137150000Y-114000000D01*
X106880000Y-108460000D02*
X107540000Y-108460000D01*
X107540000Y-108460000D02*
X110000000Y-106000000D01*
X110000000Y-95500000D02*
X100540000Y-95500000D01*
X106880000Y-108460000D02*
X102540000Y-108460000D01*
X100540000Y-110460000D02*
X100540000Y-113500000D01*
X102540000Y-108460000D02*
X100540000Y-110460000D01*
D32*
X94250000Y-117250000D02*
X92000000Y-115000000D01*
X92000000Y-104500000D02*
X94000000Y-102500000D01*
X92000000Y-115000000D02*
X92000000Y-104500000D01*
X98000000Y-100500000D02*
X96000000Y-100500000D01*
X96000000Y-100500000D02*
X94000000Y-102500000D01*
X95500000Y-118500000D02*
X98000000Y-118500000D01*
X94250000Y-117250000D02*
X95500000Y-118500000D01*
X98000000Y-118500000D02*
X98500000Y-118500000D01*
X98500000Y-118500000D02*
X99500000Y-119500000D01*
X99500000Y-119500000D02*
X100540000Y-119500000D01*
X98000000Y-100500000D02*
X98500000Y-100500000D01*
X98500000Y-100500000D02*
X99500000Y-101500000D01*
X99500000Y-101500000D02*
X100540000Y-101500000D01*
D34*
X106880000Y-105920000D02*
X105000000Y-104040000D01*
X99500000Y-93000000D02*
X98000000Y-94500000D01*
X105000000Y-93000000D02*
X99500000Y-93000000D01*
X105000000Y-104040000D02*
X105000000Y-101500000D01*
X98000000Y-112500000D02*
X98000000Y-106000000D01*
X105460000Y-104500000D02*
X106880000Y-105920000D01*
X99500000Y-104500000D02*
X105460000Y-104500000D01*
X98000000Y-106000000D02*
X99500000Y-104500000D01*
X99040000Y-128500000D02*
X99040000Y-127240000D01*
D32*
X99040000Y-127240000D02*
X99040000Y-125560000D01*
D34*
X121764897Y-103525305D02*
X121500000Y-103260408D01*
D32*
X121500000Y-103000000D02*
X120500000Y-102000000D01*
D34*
X121500000Y-103260408D02*
X121500000Y-103000000D01*
X121764897Y-103525305D02*
X121739592Y-103500000D01*
X104120000Y-128500000D02*
X104120000Y-127480000D01*
D32*
X104120000Y-127480000D02*
X104120000Y-125480000D01*
D34*
X122330583Y-104090990D02*
X121421573Y-105000000D01*
D32*
X121000000Y-105000000D02*
X119500000Y-103500000D01*
D34*
X121421573Y-105000000D02*
X121000000Y-105000000D01*
X106660000Y-128500000D02*
X106660000Y-127540000D01*
D32*
X106660000Y-127540000D02*
X106660000Y-125540000D01*
D34*
X131027817Y-97777817D02*
X131400000Y-97405634D01*
D32*
X131400000Y-97400000D02*
X132400000Y-96400000D01*
D34*
X131400000Y-97405634D02*
X131400000Y-97400000D01*
X129472361Y-99211953D02*
X130906497Y-97777817D01*
X130906497Y-97777817D02*
X131027817Y-97777817D01*
X109200000Y-128500000D02*
X109200000Y-127400000D01*
D32*
X109200000Y-127400000D02*
X109200000Y-125400000D01*
D34*
X122330583Y-100909010D02*
X120621573Y-99200000D01*
D32*
X120000000Y-99200000D02*
X118800000Y-98000000D01*
D34*
X120621573Y-99200000D02*
X120000000Y-99200000D01*
D35*
X116250000Y-91100000D02*
X116250000Y-93697056D01*
X116250000Y-93697056D02*
X122896268Y-100343324D01*
D34*
X121764897Y-101474695D02*
X120490202Y-100200000D01*
X118850000Y-100200000D02*
X109750000Y-91100000D01*
X120490202Y-100200000D02*
X118850000Y-100200000D01*
X106880000Y-111000000D02*
X109400000Y-111000000D01*
X124710000Y-82190000D02*
X126400000Y-80500000D01*
D35*
X133250000Y-81500000D02*
X133250000Y-82150000D01*
D34*
X132250000Y-80500000D02*
X133250000Y-81500000D01*
X126400000Y-80500000D02*
X132250000Y-80500000D01*
X123461953Y-99777639D02*
X121849996Y-98165682D01*
X121849996Y-85050004D02*
X124710000Y-82190000D01*
X121849996Y-98165682D02*
X121849996Y-85050004D01*
D35*
X131750000Y-82150000D02*
X131710000Y-82190000D01*
X131710000Y-82190000D02*
X129790000Y-82190000D01*
D34*
X124027639Y-99211953D02*
X122549998Y-97734312D01*
X127560000Y-82190000D02*
X129790000Y-82190000D01*
X122549998Y-87200002D02*
X127560000Y-82190000D01*
X122549998Y-97734312D02*
X122549998Y-87200002D01*
D35*
X129790000Y-89810000D02*
X129850000Y-89870000D01*
X129850000Y-89870000D02*
X129850000Y-92250000D01*
D34*
X129790000Y-89810000D02*
X129790000Y-88290000D01*
X123250000Y-97302944D02*
X124593324Y-98646268D01*
X123250000Y-88750000D02*
X123250000Y-97302944D01*
X124500000Y-87500000D02*
X123250000Y-88750000D01*
X129000000Y-87500000D02*
X124500000Y-87500000D01*
X129790000Y-88290000D02*
X129000000Y-87500000D01*
X125159010Y-98080583D02*
X124000000Y-96921573D01*
X124000000Y-93130000D02*
X124630000Y-92500000D01*
X124000000Y-96921573D02*
X124000000Y-93130000D01*
X124710000Y-92420000D02*
X124710000Y-89810000D01*
X114500000Y-103380000D02*
X115880000Y-103380000D01*
X119500000Y-107000000D02*
X121684314Y-107000000D01*
X115880000Y-103380000D02*
X119500000Y-107000000D01*
X121842157Y-106842157D02*
X121684314Y-107000000D01*
X122592157Y-106092157D02*
X123461953Y-105222361D01*
X122592157Y-106092157D02*
X121842157Y-106842157D01*
X114500000Y-111000000D02*
X116500000Y-111000000D01*
X121552944Y-106000000D02*
X122896268Y-104656676D01*
X120500000Y-106000000D02*
X121552944Y-106000000D01*
X117500000Y-103000000D02*
X120500000Y-106000000D01*
X116500000Y-111000000D02*
X117500000Y-110000000D01*
X142002000Y-88290000D02*
X139390000Y-88290000D01*
D35*
X139390000Y-88290000D02*
X139350000Y-88250000D01*
D34*
X139350000Y-93500000D02*
X141872000Y-93500000D01*
X141872000Y-93500000D02*
X142002000Y-93370000D01*
X142002000Y-98450000D02*
X139400000Y-98450000D01*
X139400000Y-98450000D02*
X139350000Y-98500000D01*
X139350000Y-103750000D02*
X141968000Y-103750000D01*
X141968000Y-103750000D02*
X142002000Y-103784000D01*
X139100000Y-109000000D02*
X141866000Y-109000000D01*
X141866000Y-109000000D02*
X142002000Y-108864000D01*
X142002000Y-113944000D02*
X139406000Y-113944000D01*
X139406000Y-113944000D02*
X139350000Y-114000000D01*
M02*
