G04 #@! TF.FileFunction,Other,ECO1*
%FSLAX46Y46*%
G04 Gerber Fmt 4.6, Leading zero omitted, Abs format (unit mm)*
G04 Created by KiCad (PCBNEW 4.0.6) date 07/31/17 14:54:03*
%MOMM*%
%LPD*%
G01*
G04 APERTURE LIST*
%ADD10C,0.100000*%
%ADD11C,0.200000*%
G04 APERTURE END LIST*
D10*
D11*
X159750000Y-79750000D02*
X146000000Y-79750000D01*
X184000000Y-79750000D02*
X159750000Y-79750000D01*
X184000000Y-134250000D02*
X184000000Y-79750000D01*
X146000000Y-134250000D02*
X184000000Y-134250000D01*
X159750000Y-105000000D02*
X151500000Y-105000000D01*
X159750000Y-112250000D02*
X159750000Y-105000000D01*
X159750000Y-112250000D02*
X159750000Y-115250000D01*
X154500000Y-112250000D02*
X159750000Y-112250000D01*
X154500000Y-110250000D02*
X154500000Y-112250000D01*
X151500000Y-110250000D02*
X154500000Y-110250000D01*
X177250000Y-105000000D02*
X165750000Y-105000000D01*
X165750000Y-119750000D02*
X165750000Y-89750000D01*
X166000000Y-119750000D02*
X165750000Y-119750000D01*
X177250000Y-116500000D02*
X177250000Y-119750000D01*
X179750000Y-119750000D02*
X179750000Y-116500000D01*
X166000000Y-119750000D02*
X179750000Y-119750000D01*
X162250000Y-89750000D02*
X177250000Y-89750000D01*
X179750000Y-116500000D02*
X179750000Y-79750000D01*
X177250000Y-82250000D02*
X177250000Y-116500000D01*
X162250000Y-82250000D02*
X177250000Y-82250000D01*
X162250000Y-127000000D02*
X162250000Y-82250000D01*
X172750000Y-127000000D02*
X162250000Y-127000000D01*
X172750000Y-134250000D02*
X172750000Y-127000000D01*
X148250000Y-112750000D02*
X148250000Y-110250000D01*
X159750000Y-88000000D02*
X159750000Y-79750000D01*
X159750000Y-88000000D02*
X159750000Y-89500000D01*
X156000000Y-88000000D02*
X159750000Y-88000000D01*
X156000000Y-92000000D02*
X156000000Y-88000000D01*
X151500000Y-92000000D02*
X156000000Y-92000000D01*
X159750000Y-97250000D02*
X159750000Y-89500000D01*
X151500000Y-97250000D02*
X159750000Y-97250000D01*
X159750000Y-99750000D02*
X151500000Y-99750000D01*
X159750000Y-102250000D02*
X159750000Y-99750000D01*
X151500000Y-102250000D02*
X159750000Y-102250000D01*
X151500000Y-89500000D02*
X151500000Y-79750000D01*
X148250000Y-89500000D02*
X151500000Y-89500000D01*
X148250000Y-92000000D02*
X148250000Y-89500000D01*
X151500000Y-92000000D02*
X148250000Y-92000000D01*
X151500000Y-94750000D02*
X151500000Y-92000000D01*
X148250000Y-94750000D02*
X151500000Y-94750000D01*
X148250000Y-97250000D02*
X148250000Y-94750000D01*
X151500000Y-97250000D02*
X148250000Y-97250000D01*
X148250000Y-99750000D02*
X151500000Y-99750000D01*
X148250000Y-102250000D02*
X148250000Y-99750000D01*
X151500000Y-102250000D02*
X148250000Y-102250000D01*
X148250000Y-105000000D02*
X151500000Y-105000000D01*
X148250000Y-107500000D02*
X148250000Y-105000000D01*
X151500000Y-107500000D02*
X148250000Y-107500000D01*
X151500000Y-110250000D02*
X151500000Y-107500000D01*
X148250000Y-110250000D02*
X151500000Y-110250000D01*
X151500000Y-112750000D02*
X151500000Y-115250000D01*
X148250000Y-112750000D02*
X151500000Y-112750000D01*
X148250000Y-127500000D02*
X148250000Y-115250000D01*
X159750000Y-127500000D02*
X148250000Y-127500000D01*
X159750000Y-115250000D02*
X159750000Y-127500000D01*
X148250000Y-115250000D02*
X159750000Y-115250000D01*
X146000000Y-134250000D02*
X146000000Y-79750000D01*
M02*
